<svg width="200" height="200" viewBox="0 0 200 200" fill="none" xmlns="http://www.w3.org/2000/svg">
<path d="M100.542 135.042C90.5362 135.029 80.9437 131.05 73.8684 123.977C66.7931 116.904 62.8126 107.315 62.7998 97.3127V65.7995C62.8121 65.2155 63.0497 64.6589 63.4629 64.2458C63.876 63.8328 64.4329 63.5953 65.0171 63.583H135.971C136.262 63.583 136.55 63.6403 136.819 63.7517C137.088 63.8631 137.333 64.0264 137.539 64.2322C137.745 64.438 137.908 64.6824 138.019 64.9513C138.131 65.2202 138.188 65.5085 138.188 65.7995V97.3127C138.176 107.299 134.208 116.873 127.154 123.943C120.099 131.013 110.531 135.004 100.542 135.042ZM67.2826 68.0642V97.3127C67.6103 105.918 71.2603 114.062 77.4664 120.034C83.6725 126.006 91.9519 129.342 100.566 129.342C109.181 129.342 117.46 126.006 123.666 120.034C129.872 114.062 133.522 105.918 133.85 97.3127V68.0642H67.2826Z" fill="black"/>
<path d="M137.804 101.12C137.056 101.11 136.312 101.013 135.586 100.831C135.089 100.73 134.643 100.457 134.326 100.061C134.009 99.6649 133.841 99.1701 133.851 98.6629V73.9438C133.843 73.4296 134.018 72.9293 134.344 72.5322C134.671 72.135 135.128 71.8668 135.635 71.7754C136.343 71.5923 137.072 71.4952 137.804 71.4863C141.442 71.7935 144.811 73.526 147.177 76.306C149.542 79.0861 150.713 82.6883 150.433 86.3274C150.712 89.9614 149.54 93.5582 147.174 96.3306C144.807 99.103 141.438 100.825 137.804 101.12ZM138.286 76.0157V96.5909C140.537 96.0453 142.516 94.7078 143.861 92.8232C145.206 90.9385 145.828 88.6327 145.612 86.3274C145.89 83.9834 145.297 81.619 143.947 79.6828C142.596 77.7466 140.582 76.3731 138.286 75.823V76.0157Z" fill="black"/>
<path d="M63.2801 101.12C59.6769 100.777 56.3518 99.0363 54.0179 96.2708C51.6839 93.5053 50.5272 89.9356 50.7957 86.3274C50.514 82.7112 51.6647 79.1292 53.9999 76.3531C56.3352 73.577 59.668 71.8292 63.2801 71.4863C64.0279 71.4964 64.772 71.5934 65.4974 71.7754C65.9994 71.8755 66.4512 72.1462 66.7763 72.5414C67.1014 72.9366 67.2797 73.4321 67.2809 73.9438V98.6629C67.2797 99.1745 67.1014 99.67 66.7763 100.065C66.4512 100.46 65.9994 100.731 65.4974 100.831C64.7729 101.018 64.0282 101.115 63.2801 101.12ZM62.7981 75.823C60.5025 76.3297 58.4713 77.6575 57.0864 79.5565C55.7016 81.4555 55.0587 83.7949 55.2785 86.1347C55.071 88.4666 55.7197 90.7943 57.1035 92.683C58.4872 94.5717 60.5115 95.8923 62.7981 96.3981V75.823Z" fill="black"/>
<path d="M154.819 181.059C154.226 181.046 153.662 180.802 153.248 180.379C152.833 179.955 152.601 179.386 152.601 178.794V166.748C152.601 162.334 150.851 158.101 147.734 154.976C144.616 151.85 140.386 150.088 135.972 150.075H65.2106C60.7829 150.075 56.5358 151.83 53.4004 154.956C50.265 158.081 48.4972 162.321 48.4844 166.748V178.794C48.4844 179.085 48.4271 179.373 48.3156 179.642C48.2042 179.911 48.0409 180.155 47.835 180.361C47.6291 180.567 47.3847 180.73 47.1156 180.842C46.8466 180.953 46.5583 181.01 46.2671 181.01C45.9759 181.01 45.6876 180.953 45.4186 180.842C45.1496 180.73 44.9051 180.567 44.6992 180.361C44.4933 180.155 44.33 179.911 44.2186 179.642C44.1072 179.373 44.0498 179.085 44.0498 178.794V166.748C44.0625 161.141 46.2961 155.768 50.2617 151.804C54.2274 147.84 59.6023 145.607 65.2106 145.594H135.972C141.58 145.607 146.955 147.84 150.92 151.804C154.886 155.768 157.12 161.141 157.132 166.748V178.794C157.132 179.095 157.072 179.394 156.955 179.672C156.839 179.95 156.667 180.202 156.452 180.413C156.236 180.624 155.981 180.789 155.7 180.9C155.42 181.011 155.12 181.065 154.819 181.059Z" fill="black"/>
<path d="M74.0793 181.059C73.4868 181.046 72.9229 180.802 72.5084 180.379C72.0939 179.956 71.8619 179.387 71.862 178.794V168.724C71.8147 168.402 71.8372 168.074 71.9281 167.761C72.0191 167.449 72.1762 167.16 72.3889 166.914C72.6016 166.668 72.8648 166.47 73.1606 166.335C73.4565 166.199 73.778 166.129 74.1034 166.129C74.4288 166.129 74.7503 166.199 75.0462 166.335C75.342 166.47 75.6052 166.668 75.8179 166.914C76.0306 167.16 76.1877 167.449 76.2787 167.761C76.3696 168.074 76.3921 168.402 76.3448 168.724V178.794C76.3448 179.395 76.1061 179.971 75.6813 180.396C75.2564 180.82 74.6801 181.059 74.0793 181.059Z" fill="black"/>
<path d="M127.004 181.06C126.709 181.06 126.416 181.001 126.144 180.886C125.872 180.772 125.625 180.604 125.419 180.393C125.212 180.183 125.05 179.932 124.941 179.658C124.833 179.383 124.78 179.09 124.787 178.795V168.724C124.78 168.429 124.833 168.136 124.941 167.861C125.05 167.587 125.212 167.337 125.419 167.126C125.625 166.915 125.872 166.747 126.144 166.633C126.416 166.518 126.709 166.459 127.004 166.459C127.605 166.459 128.181 166.698 128.606 167.123C129.031 167.548 129.269 168.124 129.269 168.724V178.795C129.269 179.396 129.031 179.972 128.606 180.396C128.181 180.821 127.605 181.06 127.004 181.06Z" fill="black"/>
<path d="M114.955 150.077H86.0337C85.4413 150.064 84.8773 149.82 84.4628 149.397C84.0483 148.973 83.8163 148.404 83.8164 147.812V129.742C83.8217 129.371 83.9165 129.006 84.0927 128.679C84.2689 128.352 84.5214 128.072 84.8287 127.863C85.154 127.686 85.5186 127.593 85.8891 127.593C86.2596 127.593 86.6242 127.686 86.9496 127.863C91.1997 129.746 95.7972 130.719 100.446 130.719C105.095 130.719 109.693 129.746 113.943 127.863C114.268 127.686 114.633 127.593 115.003 127.593C115.374 127.593 115.738 127.686 116.064 127.863C116.371 128.072 116.623 128.352 116.8 128.679C116.976 129.006 117.071 129.371 117.076 129.742V147.812C117.089 148.392 116.874 148.954 116.478 149.377C116.081 149.8 115.535 150.052 114.955 150.077ZM88.3956 145.595H112.497V133.019C104.682 135.674 96.2099 135.674 88.3956 133.019V145.595Z" fill="black"/>
<path d="M154.914 68.0646H46.2177C45.2998 68.1429 44.3756 68.0298 43.5037 67.7324C42.6319 67.435 41.8313 66.9598 41.1528 66.337C40.4742 65.7141 39.9325 64.9571 39.5619 64.114C39.1913 63.2709 39 62.36 39 61.4391C39 60.5182 39.1913 59.6074 39.5619 58.7643C39.9325 57.9212 40.4742 57.1642 41.1528 56.5413C41.8313 55.9184 42.6319 55.4433 43.5037 55.1459C44.3756 54.8485 45.2998 54.7353 46.2177 54.8137H68.4871L71.9577 32.4557C72.57 28.4249 74.6102 24.7481 77.7067 22.0949C80.8033 19.4417 84.7501 17.9885 88.8285 18.0001H91.576C92.1602 18.0124 92.7171 18.2498 93.1303 18.6629C93.5434 19.0759 93.781 19.6326 93.7933 20.2166C93.7933 22.0476 96.589 24.0714 100.542 24.0714C104.494 24.0714 107.29 22.0476 107.29 20.2166C107.303 19.6243 107.547 19.0606 107.97 18.6463C108.394 18.2319 108.963 17.9999 109.555 18.0001H112.303C116.379 17.9984 120.32 19.4551 123.415 22.1066C126.509 24.758 128.552 28.4291 129.174 32.4557L132.837 54.91H154.914C156.574 55.0517 158.121 55.8111 159.248 57.0379C160.375 58.2648 161 59.8698 161 61.5355C161 63.2012 160.375 64.8062 159.248 66.0331C158.121 67.26 156.574 68.0193 154.914 68.161V68.0646ZM46.2177 59.2467C45.6424 59.2467 45.0906 59.4752 44.6839 59.8818C44.2771 60.2884 44.0485 60.84 44.0485 61.415C44.0485 61.9901 44.2771 62.5417 44.6839 62.9483C45.0906 63.3549 45.6424 63.5834 46.2177 63.5834H154.914C155.489 63.5834 156.041 63.3549 156.448 62.9483C156.854 62.5417 157.083 61.9901 157.083 61.415C157.083 60.84 156.854 60.2884 156.448 59.8818C156.041 59.4752 155.489 59.2467 154.914 59.2467H131.15C130.616 59.2529 130.098 59.0662 129.69 58.721C129.283 58.3758 129.014 57.8951 128.933 57.3675L124.98 33.2748C124.556 30.236 123.031 27.4585 120.694 25.469C118.357 23.4796 115.372 22.4164 112.303 22.4813H111.387C110.388 24.4566 108.823 26.0892 106.891 27.1707C104.959 28.2521 102.748 28.7333 100.542 28.5527C98.3408 28.7365 96.1355 28.2562 94.2106 27.1739C92.2858 26.0916 90.73 24.4569 89.7443 22.4813H88.8285C85.8312 22.4652 82.9266 23.5194 80.6378 25.4541C78.349 27.3887 76.8264 30.0766 76.3441 33.0339L72.3915 57.3675C72.3202 57.8995 72.0539 58.3862 71.6443 58.7333C71.2348 59.0805 70.7109 59.2634 70.1742 59.2467H46.2177Z" fill="black"/>
<path d="M117.896 59.247H70.1753C69.5872 59.247 69.0233 59.0135 68.6074 58.5978C68.1916 58.1821 67.958 57.6184 67.958 57.0305C67.958 56.4426 68.1916 55.8788 68.6074 55.4632C69.0233 55.0475 69.5872 54.814 70.1753 54.814H117.896C118.484 54.814 119.048 55.0475 119.463 55.4632C119.879 55.8788 120.113 56.4426 120.113 57.0305C120.113 57.6184 119.879 58.1821 119.463 58.5978C119.048 59.0135 118.484 59.247 117.896 59.247Z" fill="black"/>
<path d="M129.706 51.7292H71.3811C71.0595 51.7184 70.7437 51.6406 70.4539 51.5008C70.1641 51.361 69.9066 51.1624 69.6979 50.9175C69.4893 50.6726 69.334 50.3869 69.242 50.0787C69.15 49.7704 69.1234 49.4464 69.1638 49.1272L70.3207 42.2367C70.392 41.7047 70.6582 41.218 71.0678 40.8709C71.4774 40.5237 72.0013 40.3408 72.538 40.3575H128.597C129.131 40.3513 129.65 40.538 130.057 40.8832C130.464 41.2284 130.733 41.7091 130.815 42.2367L131.923 49.1272C131.967 49.4415 131.947 49.7614 131.864 50.0677C131.781 50.374 131.637 50.6605 131.441 50.9101C131.232 51.1678 130.967 51.3753 130.667 51.517C130.366 51.6588 130.038 51.7313 129.706 51.7292ZM74.0323 47.4407H127.055L126.669 45.0315H74.4179L74.0323 47.4407Z" fill="black"/>
</svg>
