<svg width="200" height="200" viewBox="0 0 200 200" fill="none" xmlns="http://www.w3.org/2000/svg">
<path d="M16.2507 62.7512C16.0411 62.7459 15.8353 62.6943 15.6478 62.5998C15.4603 62.5054 15.2957 62.3705 15.1658 62.2048C15.045 62.0606 14.9542 61.8934 14.8987 61.7132C14.8432 61.533 14.8242 61.3434 14.8429 61.1557C14.8615 60.9679 14.9174 60.7859 15.0072 60.6203C15.097 60.4547 15.2189 60.309 15.3657 60.1918C15.9714 59.641 16.6206 59.1409 17.307 58.6964C18.218 58.1793 19.1735 57.7461 20.1619 57.4023C20.5218 57.282 20.914 57.3078 21.2552 57.4743C21.5964 57.6408 21.8597 57.9348 21.9891 58.2938C22.1075 58.6523 22.081 59.0434 21.9154 59.3824C21.7498 59.7215 21.4583 59.9812 21.1041 60.1055C20.3213 60.3894 19.5663 60.7456 18.8487 61.1695C18.2948 61.5121 17.761 61.8866 17.2499 62.2911C17.125 62.4344 16.9714 62.5496 16.7992 62.6289C16.627 62.7082 16.4401 62.7499 16.2507 62.7512Z" fill="black"/>
<path d="M67.4675 172.289C67.2156 172.29 66.9682 172.221 66.7538 172.087C66.5905 171.995 66.4472 171.87 66.3325 171.721C66.2178 171.572 66.134 171.401 66.0861 171.219C66.0382 171.037 66.0271 170.846 66.0535 170.66C66.0799 170.473 66.1433 170.293 66.2399 170.132C67.5687 167.66 68.5306 165.005 69.0948 162.252C69.4718 159.389 69.4718 156.488 69.0948 153.625C69.0948 152.733 68.8093 150.404 67.8957 144.135C67.3533 140.425 67.1249 139.074 66.868 137.722C66.611 136.37 66.4397 135.278 66.0115 132.402L65.5833 129.526C65.5397 127.387 65.0228 125.284 64.0702 123.372C63.6819 122.628 63.1701 121.957 62.5571 121.388C61.4373 120.38 60.37 119.314 59.3596 118.196C57.017 116.004 55.1169 113.377 53.7639 110.46C53.1642 108.843 52.883 107.124 52.936 105.398C52.9571 105.027 53.1151 104.676 53.3791 104.416C53.6431 104.155 53.9941 104.003 54.3635 103.989C54.7447 103.997 55.1077 104.155 55.3746 104.429C55.6415 104.703 55.791 105.072 55.7909 105.456C55.7409 106.819 55.9642 108.179 56.4475 109.453C57.6578 111.998 59.3333 114.291 61.3865 116.211C62.3337 117.223 63.3344 118.183 64.3842 119.087C65.2321 119.791 65.9643 120.626 66.5539 121.56C67.7312 123.797 68.3854 126.276 68.4667 128.807L68.895 131.683C69.2946 134.559 69.523 135.709 69.7514 136.917C69.9798 138.125 70.2368 139.792 70.7792 143.416C71.7213 149.8 71.9212 152.043 71.9783 153.107C72.407 156.246 72.407 159.43 71.9783 162.568C71.3046 165.64 70.2092 168.602 68.7237 171.368C68.6219 171.625 68.4499 171.848 68.2276 172.011C68.0053 172.174 67.7418 172.27 67.4675 172.289Z" fill="black"/>
<path d="M56.8461 100.308L55.4472 100.02L53.9912 99.5027L54.1911 98.9851C54.2403 98.7888 54.3301 98.6052 54.4546 98.4463C54.5792 98.2874 54.7356 98.1568 54.9137 98.063C55.0918 97.9692 55.2876 97.9144 55.4882 97.9021C55.6888 97.8898 55.8897 97.9203 56.0778 97.9916C56.2659 98.0629 56.4369 98.1734 56.5797 98.3159C56.7225 98.4584 56.8338 98.6296 56.9063 98.8184C56.9788 99.0072 57.011 99.2093 57.0006 99.4115C56.9902 99.6137 56.9376 99.8113 56.8461 99.9916V100.308Z" fill="black"/>
<path d="M76.0881 171.311H74.6606C74.6409 169.918 74.7076 168.525 74.8604 167.141C75.097 165.334 75.4984 163.553 76.0595 161.821L76.3165 160.929C76.8551 159.263 77.1719 157.532 77.2586 155.782C77.2957 154.534 77.5669 153.305 78.0579 152.158C78.7554 150.422 79.9349 148.924 81.4553 147.845C82.6041 146.966 83.5735 145.873 84.3102 144.624C85.2559 143.098 85.8057 141.358 85.909 139.563C86.1219 137.48 86.5918 135.432 87.3079 133.466C88.1823 131.038 89.4669 128.781 91.1049 126.794C91.9043 125.701 92.8178 124.465 93.9598 122.711C95.588 119.984 96.9276 117.092 97.9567 114.083C98.0778 113.721 98.3369 113.422 98.6769 113.252C99.0168 113.082 99.4099 113.055 99.7696 113.177C100.129 113.299 100.426 113.56 100.595 113.903C100.763 114.245 100.79 114.641 100.669 115.004C99.5892 118.246 98.1629 121.36 96.415 124.292C95.2731 126.162 94.3024 127.456 93.5601 128.606C92.0912 130.381 90.9502 132.407 90.1913 134.587C89.5792 136.307 89.1672 138.092 88.9637 139.908C88.8209 142.113 88.134 144.248 86.9653 146.119C86.0441 147.63 84.8536 148.956 83.4537 150.03C82.3001 150.862 81.4081 152.01 80.8843 153.337C80.5187 154.192 80.3246 155.11 80.3133 156.041C80.1944 157.994 79.8396 159.925 79.257 161.792L79.0001 162.712C78.472 164.292 78.0991 165.92 77.8867 167.572C77.7558 168.814 77.6986 170.062 77.7154 171.311H76.0881Z" fill="black"/>
<path d="M100.869 109.626H100.583C100.398 109.592 100.221 109.521 100.064 109.416C99.9062 109.311 99.7715 109.176 99.6675 109.017C99.5635 108.859 99.4923 108.681 99.4584 108.494C99.4244 108.307 99.4284 108.115 99.4699 107.93L99.6127 107.153C99.6501 106.968 99.7234 106.792 99.8283 106.636C99.9333 106.479 100.068 106.345 100.224 106.241C100.381 106.137 100.556 106.065 100.74 106.029C100.924 105.993 101.113 105.994 101.297 106.032C101.48 106.049 101.658 106.104 101.819 106.192C101.981 106.281 102.123 106.401 102.238 106.546C102.352 106.691 102.437 106.857 102.486 107.036C102.535 107.214 102.549 107.401 102.525 107.584L102.382 108.39C102.332 108.751 102.148 109.079 101.867 109.308C101.587 109.538 101.23 109.652 100.869 109.626Z" fill="black"/>
<path d="M63.4127 166.681C63.0911 166.677 62.7799 166.566 62.5277 166.365C62.2336 166.127 62.0445 165.783 62.0017 165.406C61.9589 165.028 62.0659 164.65 62.2993 164.352L62.699 163.604C62.9559 163.144 63.2129 162.626 63.4413 162.31C64.4113 160.928 65.1447 159.392 65.611 157.766C65.9002 156.304 65.9002 154.799 65.611 153.337C65.3449 151.165 64.896 149.02 64.2692 146.925C64.2692 146.752 63.4413 144.049 61.8425 137.204C60.9034 133.067 60.1886 128.882 59.7013 124.666C59.6527 124.289 59.7546 123.907 59.9847 123.605C60.2148 123.304 60.5544 123.106 60.9289 123.056C61.3066 123.015 61.6852 123.124 61.9839 123.361C62.2826 123.597 62.4777 123.942 62.5277 124.321C62.9679 128.429 63.6351 132.51 64.5261 136.543C66.1249 143.186 66.8672 145.947 66.8957 145.947C67.5796 148.259 68.0667 150.626 68.3517 153.021C68.6953 154.807 68.6953 156.642 68.3517 158.428C67.8204 160.396 66.9507 162.255 65.7823 163.92C65.611 164.179 65.3826 164.582 65.1828 164.956C64.9815 165.364 64.7525 165.758 64.4976 166.135C64.3664 166.299 64.2015 166.433 64.0143 166.527C63.8271 166.621 63.6219 166.674 63.4127 166.681Z" fill="black"/>
<path d="M168.817 142.439H168.532C166.043 141.956 163.675 140.979 161.566 139.563C160.427 138.743 159.4 137.777 158.511 136.688C157.747 135.681 156.772 134.856 155.656 134.272L152.801 133.323L150.118 132.403C148.356 131.929 146.645 131.284 145.007 130.476C142.863 129.058 141.153 127.066 140.068 124.724C137.992 121.362 136.857 117.497 136.785 113.538C136.785 113.154 136.935 112.785 137.201 112.511C137.468 112.236 137.831 112.079 138.213 112.071C138.399 112.067 138.584 112.101 138.757 112.17C138.93 112.239 139.087 112.342 139.22 112.474C139.353 112.605 139.459 112.761 139.531 112.934C139.603 113.107 139.64 113.293 139.64 113.48C139.718 116.927 140.703 120.291 142.495 123.229C143.38 125.12 144.75 126.738 146.463 127.917C147.918 128.621 149.439 129.18 151.003 129.584L153.915 130.591C155.02 130.883 156.099 131.268 157.141 131.741C158.57 132.494 159.825 133.542 160.823 134.818C161.551 135.742 162.407 136.555 163.364 137.234C165.127 138.466 167.133 139.3 169.245 139.678C169.624 139.717 169.972 139.905 170.213 140.201C170.454 140.498 170.568 140.879 170.53 141.26C170.492 141.641 170.306 141.992 170.011 142.235C169.717 142.477 169.339 142.592 168.96 142.554L168.817 142.439Z" fill="black"/>
<path d="M139.182 108.706H138.783C138.6 108.653 138.429 108.564 138.28 108.444C138.132 108.323 138.009 108.175 137.918 108.006C137.828 107.837 137.772 107.652 137.754 107.461C137.735 107.27 137.755 107.077 137.812 106.894L138.04 106.261C138.101 106.085 138.196 105.922 138.32 105.783C138.443 105.644 138.593 105.531 138.761 105.451C138.928 105.371 139.11 105.325 139.295 105.316C139.48 105.307 139.665 105.335 139.839 105.398C140.193 105.523 140.485 105.782 140.65 106.121C140.816 106.461 140.843 106.852 140.724 107.21L140.553 107.757C140.451 108.039 140.265 108.283 140.019 108.453C139.773 108.623 139.481 108.711 139.182 108.706Z" fill="black"/>
<path d="M171.3 147.443C169.602 147.435 167.954 146.858 166.618 145.804C164.981 144.279 163.879 142.261 163.477 140.052C163.44 139.867 163.439 139.676 163.474 139.491C163.51 139.305 163.581 139.129 163.685 138.971C163.788 138.814 163.921 138.678 164.077 138.573C164.232 138.467 164.407 138.393 164.591 138.355C164.961 138.287 165.343 138.365 165.657 138.574C165.971 138.783 166.193 139.107 166.275 139.477C166.531 141.029 167.271 142.459 168.388 143.56C169.189 144.23 170.202 144.587 171.242 144.567C171.622 144.566 171.987 144.712 172.263 144.974C172.539 145.236 172.705 145.595 172.727 145.976C172.735 146.166 172.704 146.355 172.637 146.533C172.571 146.711 172.469 146.873 172.338 147.01C172.207 147.147 172.051 147.256 171.877 147.33C171.703 147.405 171.517 147.443 171.328 147.443H171.3Z" fill="black"/>
<path d="M171.442 170.851C171.166 170.846 170.897 170.762 170.667 170.61C170.436 170.457 170.254 170.242 170.14 169.989C170.026 169.736 169.986 169.455 170.025 169.18C170.063 168.905 170.178 168.647 170.357 168.435C171.365 167.218 171.991 165.726 172.155 164.15C172.231 163.115 172.085 162.075 171.727 161.102C171.599 160.617 171.386 160.16 171.099 159.75C170.731 159.175 170.433 158.557 170.214 157.91C169.88 156.987 169.697 156.016 169.671 155.034C169.704 154.562 169.594 154.091 169.357 153.682C169.159 153.321 168.874 153.015 168.53 152.791C167.945 152.368 167.442 151.842 167.045 151.238C165.991 149.062 165.593 146.622 165.903 144.221C165.924 144.035 165.982 143.856 166.072 143.693C166.163 143.53 166.285 143.387 166.431 143.272C166.577 143.157 166.745 143.072 166.924 143.023C167.102 142.973 167.289 142.96 167.473 142.984C167.661 143.006 167.843 143.065 168.008 143.157C168.174 143.25 168.319 143.375 168.436 143.525C168.553 143.675 168.639 143.847 168.689 144.03C168.74 144.214 168.753 144.406 168.729 144.595C168.536 146.313 168.771 148.053 169.415 149.656C169.63 149.989 169.912 150.273 170.242 150.49C170.905 150.952 171.452 151.563 171.841 152.273C172.304 153.065 172.541 153.971 172.526 154.89C172.539 155.586 172.665 156.276 172.898 156.932C173.048 157.381 173.259 157.807 173.526 158.197C173.939 158.816 174.257 159.495 174.468 160.21C175.064 161.921 175.196 163.762 174.85 165.541C174.504 167.321 173.692 168.975 172.498 170.333C172.368 170.49 172.207 170.617 172.025 170.706C171.843 170.795 171.644 170.845 171.442 170.851Z" fill="black"/>
<path d="M181.435 171.139C181.247 171.182 181.052 171.182 180.864 171.139C180.522 170.987 180.253 170.706 180.114 170.357C179.975 170.007 179.978 169.617 180.122 169.269C180.637 168.079 180.919 166.8 180.95 165.502C180.962 164.746 180.876 163.992 180.693 163.259C180.693 162.885 180.55 162.54 180.493 162.138C180.277 160.477 180.423 158.789 180.921 157.191C180.921 156.501 181.264 155.696 181.464 154.718C181.755 153.31 181.87 151.87 181.806 150.433C181.747 148.748 181.862 147.062 182.149 145.401C182.384 143.96 182.718 142.538 183.148 141.144C183.452 140.287 183.597 139.38 183.577 138.47C183.527 137.797 183.403 137.131 183.205 136.486C182.948 135.479 182.577 133.869 181.949 131.079L181.778 130.418C181.093 127.312 180.95 126.823 180.408 126.248C179.927 125.792 179.365 125.431 178.752 125.184C178.241 125.024 177.772 124.75 177.381 124.381C176.991 124.012 176.688 123.559 176.496 123.056C176.011 121.532 176.81 120.18 177.867 118.829L178.58 117.765C180.156 115.258 181.458 112.587 182.463 109.799C183.062 107.874 183.436 105.886 183.577 103.875C184.387 99.1227 184.474 94.2741 183.833 89.4958C183.262 86.2289 182.303 83.0429 180.979 80.0058C179.439 75.8356 177.024 72.0492 173.898 68.9054C171.106 66.3243 167.85 64.3039 164.306 62.9526C158.899 60.5437 153.085 59.1967 147.176 58.984C145.126 58.8857 143.072 59.0598 141.067 59.5017C138.496 60.0109 135.891 60.3186 133.273 60.4219C130.464 60.605 127.644 60.5183 124.851 60.1631C122.596 59.933 119.769 59.6167 114.373 59.4729C110.948 59.4729 108.492 59.4729 106.437 59.4729C102.902 59.5834 99.3647 59.3523 95.8737 58.7827C92.4177 58.2398 89.0097 57.4225 85.6816 56.3383C82.1337 55.477 78.7555 54.0186 75.6894 52.0247C74.0874 50.8251 72.6727 49.3904 71.4927 47.7686L68.5522 44.3177C66.0728 41.237 63.3622 38.3528 60.4442 35.6904C57.5102 33.5507 54.1956 31.9984 50.6804 31.1179C47.1133 30.1313 43.4111 29.7331 39.7176 29.9389C36.3796 29.879 33.0774 30.639 30.0965 32.1532C28.041 33.3035 25.5001 34.7126 24.8435 37.4733C24.5362 38.5457 24.5454 39.685 24.8698 40.7522C25.1943 41.8194 25.82 42.7685 26.6706 43.4837C27.2702 43.7425 28.2123 43.4837 30.2964 43.1386C31.1117 42.982 31.9136 42.7608 32.6945 42.4772C33.6138 42.11 34.5716 41.8495 35.5494 41.7007C37.0863 41.3124 38.6946 41.3124 40.2314 41.7007C41.5251 42.0938 42.7036 42.7999 43.6641 43.7573C44.6245 44.7148 45.3377 45.8945 45.7414 47.1934C46.1326 48.3665 46.2512 49.6145 46.0878 50.8411C45.9245 52.0676 45.4836 53.24 44.7993 54.2678C44.1676 54.9963 43.3855 55.5771 42.5077 55.9695C41.63 56.3619 40.6777 56.5565 39.7176 56.5396C38.1661 56.5209 36.6515 57.0159 35.4066 57.9488C33.9218 59.444 32.9257 61.3604 32.5517 63.4415C32.0903 65.2231 31.9453 67.0729 32.1235 68.9054C32.2539 70.1701 32.5916 71.4042 33.1227 72.5576C33.551 73.6792 34.1505 75.2033 34.9213 77.734C35.4066 79.3444 35.635 80.2071 35.7778 80.7823C35.8871 81.3372 36.0595 81.8776 36.2917 82.3927C36.8205 83.6127 37.512 84.7544 38.3472 85.7861C39.1127 86.7356 39.7202 87.8039 40.1458 88.9495C40.6954 90.6027 40.755 92.3815 40.3171 94.0683C40.3171 94.816 40.0602 95.65 39.9745 96.714C39.7468 101.383 40.9208 106.013 43.3433 110C45.5354 113.168 48.4032 115.801 51.7367 117.707C55.0463 119.945 58.5537 121.87 62.2143 123.459C64.0414 124.293 65.5831 124.925 66.6679 125.357C66.8558 125.414 67.0299 125.51 67.1793 125.638C67.3287 125.767 67.4502 125.925 67.5361 126.103C67.6221 126.281 67.6707 126.474 67.679 126.672C67.6872 126.87 67.6549 127.067 67.584 127.251C67.5131 127.436 67.4052 127.604 67.267 127.744C67.1288 127.885 66.9633 127.995 66.7808 128.068C66.5984 128.141 66.4029 128.176 66.2067 128.169C66.0104 128.163 65.8175 128.116 65.6402 128.031C64.5267 127.6 62.928 126.938 61.0437 126.076C57.247 124.487 53.5975 122.562 50.138 120.324C46.456 118.188 43.3031 115.238 40.9166 111.697C38.1691 107.197 36.8541 101.959 37.1481 96.6852C37.2083 95.7194 37.3322 94.7587 37.5193 93.8095C37.8781 92.6091 37.8781 91.3289 37.5193 90.1285C37.1609 89.1487 36.6289 88.2425 35.9491 87.4541C34.984 86.2457 34.1869 84.9106 33.5795 83.4855C33.2701 82.8253 33.0401 82.1301 32.8943 81.415C32.7516 80.8686 32.5517 80.0634 32.0949 78.5392C31.3527 76.0948 30.7817 74.6857 30.3535 73.5354C29.7231 72.1445 29.3275 70.6575 29.1829 69.1355C28.9502 66.9557 29.1245 64.7514 29.6968 62.6362C30.2187 60.0184 31.5475 57.6333 33.4939 55.8207C35.189 54.5037 37.2629 53.7771 39.4035 53.7502C41.0023 53.7502 41.8873 53.5201 42.5725 52.6574C42.9506 51.9972 43.1867 51.2644 43.2654 50.5063C43.3441 49.7483 43.2636 48.9821 43.0293 48.2574C42.7754 47.3951 42.3182 46.6074 41.6969 45.9615C41.0755 45.3155 40.3083 44.8305 39.4606 44.5477C38.3443 44.2756 37.1796 44.2756 36.0633 44.5477C35.2344 44.6714 34.4209 44.8834 33.6366 45.1804C32.7051 45.5091 31.7509 45.7686 30.7817 45.9568C29.0718 46.61 27.1966 46.6807 25.443 46.1581C23.9723 45.1664 22.8531 43.7289 22.2475 42.0538C21.6418 40.3787 21.5811 38.5529 22.0742 36.8407C22.6067 35.2434 23.4736 33.78 24.6163 32.5496C25.7591 31.3191 27.1509 30.3503 28.6976 29.7088C32.0451 27.9478 35.7698 27.0395 39.5463 27.0631C43.5566 26.827 47.5782 27.2544 51.4512 28.3284C55.2983 29.3141 58.9225 31.0321 62.1286 33.3898C65.2326 36.1704 68.0977 39.2104 70.6934 42.4772L73.5483 45.8993C74.5866 47.32 75.8166 48.588 77.2025 49.6666C80.0753 51.4807 83.2315 52.7933 86.5381 53.5488C89.7499 54.5766 93.0324 55.3648 96.359 55.907C99.701 56.4338 103.084 56.6456 106.465 56.5396C108.549 56.5396 111.033 56.5396 114.516 56.5396C120.026 56.7122 122.91 56.9998 125.222 57.2586C127.864 57.5832 130.53 57.6698 133.187 57.5174C135.671 57.4134 138.143 57.1153 140.582 56.6259C142.802 56.1335 145.077 55.9401 147.348 56.0508C153.6 56.2783 159.753 57.7032 165.476 60.2494C169.314 61.7544 172.838 63.9684 175.868 66.7773C179.296 70.1885 181.963 74.2962 183.691 78.8268C185.048 82.1014 186.006 85.5292 186.546 89.0357C187.227 94.1 187.141 99.2392 186.289 104.277C186.127 106.495 185.705 108.687 185.033 110.805C183.97 113.7 182.611 116.476 180.979 119.087L180.208 120.209C179.785 120.726 179.447 121.309 179.209 121.934C179.44 122.105 179.689 122.25 179.951 122.366C180.885 122.728 181.732 123.286 182.435 124.005C183.605 125.213 183.833 126.306 184.576 129.555V130.217C185.204 133.092 185.604 134.588 185.832 135.594C186.093 136.434 186.247 137.304 186.289 138.182C186.333 139.407 186.139 140.628 185.718 141.777C185.334 143.039 185.038 144.327 184.833 145.631C184.565 147.11 184.46 148.614 184.519 150.117C184.584 151.757 184.45 153.399 184.119 155.006C183.919 156.07 183.719 156.904 183.548 157.623C183.136 158.862 183.009 160.18 183.177 161.476L183.348 162.454C183.582 163.394 183.688 164.361 183.662 165.33C183.633 167.004 183.274 168.656 182.606 170.19C182.515 170.44 182.358 170.661 182.152 170.828C181.945 170.995 181.698 171.103 181.435 171.139Z" fill="black"/>
<path d="M160.624 163.834C160.412 163.837 160.202 163.792 160.01 163.702C159.817 163.613 159.647 163.481 159.511 163.317C159.272 163.018 159.16 162.636 159.197 162.255C159.235 161.873 159.419 161.521 159.711 161.275C160.338 160.859 160.878 160.322 161.3 159.695C161.721 159.069 162.015 158.364 162.166 157.623C162.194 157.317 162.194 157.009 162.166 156.703L161.937 155.063C161.681 153.28 161.595 152.418 161.538 151.814C161.481 151.21 161.538 151.095 161.366 150.635C161.19 149.836 160.871 149.076 160.424 148.392C160.11 147.816 159.711 147.097 159.197 146.005C158.646 144.835 158.188 143.623 157.826 142.381C157.627 141.592 157.359 140.823 157.027 140.081C155.824 137.469 154.278 135.031 152.431 132.834C152.235 132.545 152.151 132.195 152.193 131.849C152.235 131.502 152.401 131.183 152.66 130.951C152.919 130.718 153.252 130.589 153.599 130.586C153.945 130.583 154.281 130.708 154.543 130.936C156.616 133.347 158.328 136.05 159.625 138.959C160.008 139.802 160.313 140.678 160.539 141.576C160.851 142.675 161.262 143.744 161.766 144.768C162.223 145.803 162.594 146.436 162.88 146.982C163.446 147.865 163.861 148.837 164.107 149.858C164.227 150.368 164.304 150.888 164.336 151.411C164.336 151.986 164.478 152.849 164.735 154.546L164.964 156.156C165.024 156.682 165.024 157.212 164.964 157.738C164.809 158.89 164.416 159.997 163.812 160.988C163.207 161.978 162.403 162.83 161.452 163.489C161.226 163.701 160.932 163.823 160.624 163.834Z" fill="black"/>
<path d="M116.143 135.824C115.473 135.812 114.806 135.755 114.144 135.652C113.516 135.652 112.717 135.422 111.489 135.307C110.31 135.225 109.128 135.225 107.949 135.307C107 135.408 106.043 135.408 105.094 135.307C103.435 135.147 101.809 134.74 100.269 134.099C98.9939 133.615 97.6743 133.258 96.3295 133.035C94.4447 132.704 92.5247 132.627 90.6197 132.805C90.4321 132.821 90.2433 132.799 90.0641 132.741C89.8849 132.683 89.7189 132.589 89.5756 132.467C89.4324 132.344 89.3146 132.193 89.2292 132.024C89.1438 131.855 89.0924 131.671 89.078 131.482C89.0584 131.295 89.0763 131.105 89.1307 130.925C89.185 130.744 89.2748 130.577 89.3945 130.432C89.5143 130.287 89.6617 130.168 89.828 130.082C89.9944 129.995 90.1762 129.943 90.3627 129.929C92.4685 129.756 94.5873 129.843 96.6721 130.188C98.1911 130.448 99.6823 130.853 101.126 131.396C102.459 131.945 103.862 132.303 105.294 132.46C106.062 132.545 106.838 132.545 107.606 132.46C108.918 132.352 110.235 132.352 111.546 132.46C112.859 132.46 113.716 132.69 114.401 132.805C115.158 132.92 115.928 132.92 116.685 132.805C117.553 132.769 118.407 132.564 119.197 132.201C120.251 131.768 121.372 131.525 122.509 131.482C123.659 131.367 124.82 131.464 125.935 131.77C126.866 132.014 127.834 132.083 128.79 131.971C129.461 131.924 130.123 131.789 130.76 131.568C131.791 131.241 132.853 131.02 133.929 130.907C134.876 130.788 135.829 130.731 136.784 130.734C137.401 130.788 138.022 130.788 138.639 130.734C140.595 130.438 142.464 129.722 144.121 128.635C144.282 128.536 144.461 128.47 144.647 128.441C144.833 128.412 145.024 128.42 145.207 128.466C145.39 128.511 145.562 128.593 145.714 128.706C145.866 128.819 145.994 128.961 146.091 129.124C146.19 129.282 146.256 129.458 146.287 129.643C146.318 129.827 146.311 130.016 146.269 130.198C146.226 130.38 146.148 130.552 146.039 130.703C145.93 130.854 145.792 130.982 145.634 131.079C143.623 132.368 141.367 133.221 139.01 133.581C138.251 133.648 137.486 133.648 136.727 133.581C135.849 133.572 134.971 133.62 134.1 133.725C133.217 133.827 132.346 134.02 131.502 134.3C130.669 134.575 129.806 134.748 128.933 134.818C127.707 134.937 126.471 134.839 125.278 134.53C124.462 134.3 123.608 134.232 122.766 134.329C121.949 134.401 121.149 134.605 120.396 134.933C119.334 135.417 118.192 135.699 117.028 135.767L116.143 135.824Z" fill="black"/>
<path d="M60.9866 56.9137C59.5036 56.8914 58.0244 56.7568 56.5614 56.5111C54.2534 56.1943 52.0088 55.515 49.9095 54.4981C48.9131 54.0018 47.9583 53.4247 47.0546 52.7726C46.89 52.6697 46.7479 52.5342 46.637 52.3742C46.5261 52.2143 46.4487 52.0332 46.4095 51.8422C46.3702 51.6511 46.37 51.454 46.4088 51.2628C46.4476 51.0716 46.5247 50.8904 46.6352 50.7302C46.7458 50.57 46.8876 50.4342 47.0519 50.3309C47.2163 50.2276 47.3998 50.1592 47.5913 50.1296C47.7827 50.1001 47.9782 50.1101 48.1657 50.1591C48.3532 50.2081 48.5288 50.295 48.6819 50.4145C49.4991 50.9786 50.3581 51.4785 51.2513 51.9099C53.1081 52.7814 55.0788 53.3817 57.1039 53.6929C58.098 53.8313 59.0985 53.9177 60.1015 53.9517C59.0913 53.3474 58.136 52.6545 57.2466 51.8812C56.6564 51.3747 56.0368 50.9042 55.3909 50.472C53.7214 49.3825 51.8762 48.5943 49.9381 48.1427C49.5595 48.0511 49.2325 47.8119 49.029 47.4775C48.8256 47.1431 48.7623 46.741 48.8532 46.3597C48.944 45.9783 49.1816 45.649 49.5135 45.444C49.8455 45.2391 50.2446 45.1754 50.6232 45.2669C52.8388 45.8375 54.9429 46.7805 56.8469 48.0564C57.5831 48.5596 58.2886 49.107 58.9596 49.6956C59.8501 50.476 60.8052 51.1783 61.8145 51.7949C62.5282 52.2262 63.0992 52.5138 63.5274 52.7439C64.4981 53.2615 65.5544 53.8079 65.3546 55.0732C65.1547 56.3386 63.2419 56.9137 60.9866 56.9137Z" fill="black"/>
<path d="M21.7028 68.3308C21.0104 68.4022 20.3109 68.3237 19.6511 68.1005C18.9913 67.8773 18.3865 67.5146 17.8772 67.0367C17.6682 66.799 17.4863 66.5386 17.3348 66.2602C17.2374 66.0455 17.0783 65.8652 16.878 65.7426C16.7533 65.6419 16.6065 65.5729 16.4498 65.5413C15.9651 65.4482 15.5127 65.2303 15.1365 64.9086C14.7239 64.4658 14.4109 63.9386 14.2188 63.3629C14.0267 62.7873 13.9599 62.1767 14.0231 61.5727C14.1208 59.9643 14.5588 58.3954 15.3078 56.9715C15.7932 55.965 16.1357 55.3611 16.5354 54.6709C16.9351 53.9807 17.2492 53.3768 17.8201 52.1977C18.1627 51.5076 18.3055 51.1337 18.4482 50.8461C18.591 50.5586 18.6481 50.3573 18.8194 50.0122C19.9826 47.7902 21.609 45.8479 23.5871 44.3182C23.8739 44.1423 24.213 44.0738 24.545 44.1249C24.8769 44.1759 25.1803 44.3432 25.4019 44.5974C25.6235 44.8515 25.7491 45.1762 25.7566 45.5143C25.764 45.8525 25.6529 46.1824 25.4428 46.4462C23.7767 47.697 22.4108 49.3088 21.4459 51.1625L21.1604 51.8527C21.0176 52.169 20.8463 52.5428 20.4752 53.2905C19.8757 54.5559 19.4474 55.3036 19.0763 55.965C18.7052 56.6264 18.4197 57.1153 17.9914 58.0355C17.3864 59.1265 17.0076 60.3299 16.878 61.5727C16.878 62.2917 16.878 62.6943 17.0208 62.8093C17.5466 62.8919 18.0456 63.0989 18.4768 63.4132C19.0191 63.7627 19.4618 64.2483 19.7615 64.8223C19.8209 64.9391 19.8979 65.0458 19.9899 65.1387C20.2468 65.455 21.0176 65.57 22.4451 65.4838C24.9009 65.3684 27.3347 64.9631 29.6966 64.2759C29.884 64.225 30.0796 64.2117 30.2722 64.2368C30.4647 64.262 30.6505 64.3251 30.8188 64.4226C30.9872 64.52 31.1348 64.6499 31.2533 64.8049C31.3718 64.9598 31.4588 65.1368 31.5094 65.3256C31.5601 65.5144 31.5733 65.7114 31.5483 65.9054C31.5233 66.0994 31.4606 66.2865 31.3639 66.456C31.2671 66.6256 31.1381 66.7743 30.9843 66.8937C30.8305 67.013 30.6549 67.1007 30.4674 67.1517C27.8947 67.8446 25.25 68.2307 22.5878 68.302L21.7028 68.3308Z" fill="black"/>
<path d="M176.753 171.426C174.954 171.426 173.098 171.426 171.3 171.253C171.112 171.24 170.929 171.19 170.761 171.105C170.593 171.021 170.443 170.904 170.32 170.761C170.071 170.472 169.946 170.096 169.972 169.715C169.999 169.333 170.175 168.978 170.461 168.728C170.747 168.477 171.121 168.351 171.5 168.378C173.498 168.378 175.525 168.579 177.523 168.55C178.865 168.55 180.121 168.55 181.349 168.55C181.538 168.53 181.73 168.55 181.911 168.609C182.092 168.667 182.259 168.763 182.401 168.89C182.544 169.017 182.658 169.173 182.737 169.347C182.817 169.521 182.859 169.71 182.862 169.902C182.871 170.28 182.738 170.647 182.489 170.93C182.24 171.212 181.894 171.39 181.52 171.426C180.236 171.426 178.922 171.426 177.552 171.426H176.753Z" fill="black"/>
<path d="M166.074 165.359C165.377 165.354 164.681 165.306 163.99 165.215C162.533 165.026 161.111 164.629 159.765 164.036C159.421 163.878 159.151 163.592 159.012 163.238C158.874 162.884 158.878 162.489 159.023 162.138C159.184 161.796 159.469 161.529 159.818 161.39C160.168 161.251 160.557 161.251 160.907 161.39C162.006 161.882 163.169 162.211 164.361 162.368C166.041 162.594 167.748 162.486 169.386 162.052C169.566 162 169.754 161.985 169.94 162.007C170.126 162.03 170.306 162.09 170.468 162.184C170.63 162.278 170.772 162.403 170.886 162.554C170.999 162.704 171.081 162.875 171.127 163.058C171.217 163.428 171.164 163.818 170.978 164.149C170.793 164.48 170.489 164.728 170.128 164.841C168.803 165.183 167.442 165.357 166.074 165.359Z" fill="black"/>
<path d="M70.6071 172.922H70.3787C69.2016 172.881 68.0412 172.627 66.9528 172.174C66.777 172.111 66.6158 172.012 66.4793 171.883C66.3427 171.755 66.2337 171.6 66.1588 171.427C66.084 171.255 66.0449 171.069 66.044 170.881C66.043 170.693 66.0803 170.507 66.1535 170.333C66.2938 169.978 66.5664 169.692 66.913 169.536C67.2596 169.381 67.653 169.367 68.0092 169.499C68.7786 169.828 69.6008 170.013 70.4358 170.046C70.8915 170.092 71.3506 170.092 71.8062 170.046C72.3201 170.046 72.8911 170.046 73.719 169.873C74.5555 169.818 75.3948 169.818 76.2313 169.873C76.4181 169.891 76.5994 169.946 76.7645 170.036C76.9296 170.126 77.075 170.248 77.1922 170.396C77.3094 170.543 77.396 170.713 77.4467 170.895C77.4974 171.077 77.5113 171.268 77.4875 171.455C77.4444 171.832 77.2552 172.176 76.9611 172.413C76.667 172.65 76.2918 172.761 75.9173 172.72C75.2136 172.681 74.5083 172.681 73.8046 172.72C73.2596 172.75 72.7165 172.807 72.1773 172.893C71.6549 172.933 71.1306 172.943 70.6071 172.922Z" fill="black"/>
<path d="M66.7258 166.998H65.7837C64.956 166.945 64.1345 166.82 63.3285 166.624C63.1455 166.586 62.9718 166.512 62.8176 166.406C62.6634 166.3 62.5319 166.164 62.4308 166.006C62.3297 165.848 62.2611 165.671 62.2289 165.485C62.1968 165.3 62.2017 165.11 62.2436 164.927C62.2841 164.741 62.3606 164.566 62.4688 164.41C62.577 164.255 62.7147 164.123 62.874 164.021C63.0332 163.919 63.2109 163.851 63.3967 163.818C63.5825 163.786 63.7728 163.792 63.9565 163.834C64.616 163.972 65.2835 164.068 65.955 164.122C66.7533 164.179 67.5547 164.179 68.3531 164.122C68.7278 164.073 69.1065 164.175 69.4062 164.407C69.7059 164.639 69.9021 164.981 69.9519 165.358C69.9799 165.546 69.9701 165.737 69.9231 165.921C69.8761 166.104 69.7927 166.276 69.6781 166.427C69.5635 166.577 69.4199 166.702 69.256 166.796C69.0921 166.889 68.9113 166.948 68.7242 166.969C68.0594 167.021 67.3919 167.031 66.7258 166.998Z" fill="black"/>
<path d="M89.5943 76.756C89.2817 76.7542 88.9784 76.6492 88.7309 76.457C88.4833 76.2647 88.3052 75.996 88.224 75.692L87.7386 73.9953C87.6364 73.6139 87.6888 73.2073 87.8842 72.8648C88.0796 72.5224 88.4021 72.2721 88.7807 72.1692C89.1592 72.0662 89.5629 72.1189 89.9029 72.3158C90.2429 72.5126 90.4913 72.8375 90.5935 73.2188L91.0503 74.9155C91.1028 75.0968 91.1193 75.2867 91.099 75.4744C91.0786 75.6621 91.0217 75.8439 90.9316 76.0095C90.8414 76.1751 90.7198 76.3211 90.5736 76.4393C90.4275 76.5576 90.2596 76.6456 90.0796 76.6985L89.5943 76.756Z" fill="black"/>
<path d="M150.745 90.3304H150.516C150.147 90.2734 149.814 90.0729 149.59 89.7718C149.366 89.4707 149.268 89.0931 149.317 88.72L149.574 87.0808C149.602 86.8937 149.666 86.7141 149.763 86.5521C149.86 86.3901 149.988 86.2489 150.139 86.1368C150.29 86.0246 150.462 85.9435 150.644 85.8982C150.826 85.853 151.016 85.8444 151.201 85.873C151.573 85.9367 151.906 86.1431 152.129 86.4488C152.353 86.7545 152.45 87.1357 152.4 87.5121L152.143 89.1226C152.09 89.4579 151.919 89.7632 151.663 89.9843C151.407 90.2053 151.082 90.328 150.745 90.3304Z" fill="black"/>
<path d="M144.922 94.5572C144.543 94.5572 144.18 94.4057 143.912 94.136C143.645 93.8664 143.494 93.5006 143.494 93.1193V91.3363C143.494 90.955 143.645 90.5892 143.912 90.3196C144.18 90.0499 144.543 89.8984 144.922 89.8984C145.298 89.9058 145.657 90.0597 145.923 90.3277C146.189 90.5958 146.342 90.9573 146.349 91.3363V93.2056C146.327 93.5718 146.167 93.9157 145.902 94.167C145.636 94.4182 145.286 94.5578 144.922 94.5572Z" fill="black"/>
<path d="M46.7687 106.952C46.4869 106.946 46.2115 106.867 45.9693 106.722C45.8127 106.615 45.6787 106.478 45.5751 106.319C45.4715 106.159 45.4003 105.981 45.3658 105.794C45.3313 105.606 45.334 105.414 45.3739 105.228C45.4138 105.042 45.49 104.865 45.5982 104.709L46.5688 103.242C46.6721 103.085 46.8056 102.951 46.9613 102.847C47.117 102.743 47.2918 102.672 47.4755 102.637C47.6591 102.602 47.8478 102.604 48.0304 102.644C48.213 102.684 48.3858 102.76 48.5387 102.868C48.8516 103.079 49.0692 103.406 49.1441 103.778C49.2189 104.149 49.145 104.536 48.9384 104.853L47.9677 106.319C47.832 106.513 47.6524 106.671 47.444 106.781C47.2355 106.891 47.004 106.95 46.7687 106.952Z" fill="black"/>
<path d="M43.6848 92.7736C43.4774 92.8147 43.2641 92.8147 43.0567 92.7736C42.8878 92.6908 42.7367 92.5752 42.6122 92.4335C42.4877 92.2917 42.3922 92.1266 42.3312 91.9476C42.2702 91.7686 42.2449 91.5792 42.2567 91.3903C42.2685 91.2014 42.3173 91.0168 42.4001 90.8469L43.5706 88.3162C43.7334 87.9692 44.0264 87.7015 44.3851 87.5721C44.7438 87.4426 45.1389 87.462 45.4834 87.626C45.8279 87.79 46.0936 88.0851 46.2221 88.4465C46.3506 88.8078 46.3314 89.2058 46.1686 89.5528L44.9695 92.0835C44.8366 92.304 44.6471 92.4845 44.4211 92.6059C44.195 92.7274 43.9407 92.7853 43.6848 92.7736Z" fill="black"/>
<path d="M39.4025 81.0408C39.2323 81.0682 39.0588 81.0682 38.8886 81.0408C38.7117 80.9739 38.5496 80.8722 38.412 80.7417C38.2743 80.6112 38.1638 80.4544 38.0867 80.2805C38.0097 80.1066 37.9678 79.919 37.9633 79.7286C37.9588 79.5383 37.9919 79.3489 38.0607 79.1715L38.7744 77.2735C38.9089 76.9204 39.1761 76.6349 39.5181 76.4788C39.8601 76.3227 40.2493 76.3086 40.6016 76.4396C40.9574 76.5694 41.2474 76.8361 41.408 77.1812C41.5686 77.5263 41.5866 77.9216 41.458 78.2801L40.7443 80.2068C40.6238 80.4609 40.4331 80.6747 40.1952 80.8226C39.9572 80.9705 39.6821 81.0462 39.4025 81.0408Z" fill="black"/>
<path d="M102.668 128.692C102.289 128.692 101.926 128.541 101.658 128.271C101.391 128.002 101.24 127.636 101.24 127.255V124.379C101.24 123.997 101.391 123.632 101.658 123.362C101.926 123.092 102.289 122.941 102.668 122.941C103.046 122.941 103.409 123.092 103.677 123.362C103.945 123.632 104.095 123.997 104.095 124.379V127.255C104.095 127.636 103.945 128.002 103.677 128.271C103.409 128.541 103.046 128.692 102.668 128.692Z" fill="black"/>
<path d="M115.287 128.692H114.945C114.763 128.645 114.592 128.562 114.441 128.449C114.291 128.335 114.165 128.193 114.069 128.03C113.974 127.867 113.911 127.686 113.885 127.499C113.859 127.312 113.87 127.121 113.917 126.938L114.631 124.062C114.731 123.697 114.97 123.386 115.296 123.198C115.622 123.01 116.009 122.958 116.372 123.055C116.736 123.157 117.046 123.396 117.238 123.723C117.429 124.051 117.487 124.44 117.4 124.81L116.8 127.714C116.693 128.024 116.486 128.289 116.211 128.466C115.937 128.644 115.612 128.723 115.287 128.692Z" fill="black"/>
<path d="M131.218 125.931H130.761C130.383 125.931 130.02 125.78 129.752 125.51C129.484 125.241 129.334 124.875 129.334 124.494C129.334 124.112 129.484 123.746 129.752 123.477C130.02 123.207 130.383 123.056 130.761 123.056H131.218C131.597 123.056 131.96 123.207 132.228 123.477C132.495 123.746 132.646 124.112 132.646 124.494C132.646 124.875 132.495 125.241 132.228 125.51C131.96 125.78 131.597 125.931 131.218 125.931Z" fill="black"/>
</svg>
