<svg width="200" height="200" viewBox="0 0 200 200" fill="none" xmlns="http://www.w3.org/2000/svg">
<g clip-path="url(#clip0)">
<path d="M131.246 113.357H29.822C29.2565 113.345 28.7176 113.116 28.3177 112.718C27.9178 112.319 27.6878 111.782 27.6759 111.218V64.7138C27.6662 64.4122 27.7192 64.112 27.8316 63.8318C27.944 63.5517 28.1134 63.2978 28.3291 63.0861L46.9903 42.7172C47.2201 42.5207 47.4704 42.3492 47.7368 42.2057L79.6475 28.9984C79.9124 28.8832 80.1983 28.8237 80.4873 28.8237C80.7763 28.8237 81.0622 28.8832 81.3271 28.9984L113.238 42.2057C113.511 42.3374 113.763 42.5099 113.984 42.7172L132.646 63.0861C133.013 63.4946 133.213 64.0258 133.205 64.5743V111.079C133.244 111.639 133.06 112.192 132.694 112.618C132.327 113.044 131.807 113.31 131.246 113.357ZM32.0147 108.707H129.1V65.4114L111.138 46.019L80.534 33.3233L49.9761 46.019L32.0147 65.4114V108.707Z" fill="black"/>
<path d="M21.1452 74.5279C20.842 74.5283 20.5426 74.4618 20.2684 74.3331C19.9941 74.2045 19.7518 74.0169 19.5589 73.7838C19.1573 73.3827 18.9316 72.8392 18.9316 72.2724C18.9316 71.7057 19.1573 71.1621 19.5589 70.761L28.3297 62.9483C28.5332 62.7175 28.7832 62.5321 29.0634 62.4042C29.3436 62.2762 29.6477 62.2086 29.9559 62.2057C30.2641 62.2028 30.5695 62.2647 30.8521 62.3873C31.1347 62.51 31.3881 62.6906 31.5959 62.9175C31.8038 63.1444 31.9613 63.4124 32.0582 63.7041C32.1551 63.9957 32.1892 64.3044 32.1583 64.6101C32.1275 64.9158 32.0323 65.2116 31.8791 65.4781C31.7258 65.7447 31.5179 65.976 31.2689 66.1571L22.6381 73.9698C22.2283 74.336 21.6954 74.5352 21.1452 74.5279Z" fill="black"/>
<path d="M139.923 74.5267C139.389 74.5225 138.875 74.324 138.477 73.9686L129.8 66.1559C129.373 65.7735 129.116 65.2378 129.085 64.6666C129.054 64.0953 129.253 63.5354 129.636 63.1098C130.02 62.6843 130.557 62.4281 131.13 62.3976C131.703 62.3671 132.265 62.5647 132.692 62.9471L141.37 70.7598C141.574 70.9552 141.737 71.1898 141.848 71.4495C141.96 71.7093 142.017 71.9888 142.017 72.2712C142.017 72.5536 141.96 72.8331 141.848 73.0929C141.737 73.3526 141.574 73.5872 141.37 73.7826C141.194 74.0005 140.975 74.1792 140.726 74.3074C140.476 74.4356 140.203 74.5102 139.923 74.5267Z" fill="black"/>
<path d="M147.202 47.1359H115.291C114.71 47.1359 114.152 46.9056 113.741 46.4957C113.33 46.0858 113.099 45.5299 113.099 44.9502V36.9049C113.099 33.7475 114.357 30.7194 116.597 28.4868C118.837 26.2541 121.874 24.9998 125.042 24.9998H137.452C139.04 24.9689 140.618 25.254 142.094 25.8384C143.57 26.4229 144.914 27.2949 146.048 28.4035C147.182 29.5121 148.082 30.8349 148.697 32.2947C149.312 33.7545 149.628 35.3218 149.628 36.9049V44.9502C149.63 45.2579 149.566 45.5625 149.442 45.844C149.317 46.1256 149.135 46.3778 148.906 46.5841C148.677 46.7904 148.407 46.9462 148.113 47.0413C147.819 47.1364 147.509 47.1686 147.202 47.1359ZM117.437 42.811H144.963V36.9049C144.963 34.9106 144.175 32.9965 142.769 31.5775C141.363 30.1586 139.452 29.3492 137.452 29.3247H125.042C123.025 29.3247 121.091 30.1234 119.665 31.5449C118.239 32.9665 117.437 34.8945 117.437 36.9049V42.811Z" fill="black"/>
<path d="M174.867 47.1361H158.212C157.691 47.0598 157.215 46.7993 156.871 46.4023C156.527 46.0053 156.338 45.4982 156.338 44.9736C156.338 44.449 156.527 43.9419 156.871 43.5449C157.215 43.1479 157.691 42.8875 158.212 42.8112H172.674V36.9051C172.674 34.8947 171.873 32.9667 170.447 31.5451C169.021 30.1235 167.086 29.3249 165.07 29.3249H152.66C152.139 29.2486 151.663 28.9882 151.319 28.5911C150.975 28.1941 150.786 27.687 150.786 27.1625C150.786 26.6379 150.975 26.1308 151.319 25.7338C151.663 25.3368 152.139 25.0763 152.66 25H165.07C168.237 25 171.275 26.2543 173.515 28.4869C175.754 30.7196 177.013 33.7477 177.013 36.9051V44.9504C177.013 45.5221 176.788 46.0711 176.387 46.4797C175.986 46.8883 175.44 47.1239 174.867 47.1361Z" fill="black"/>
<path d="M168.801 91.5945H153.685C153.165 91.5182 152.689 91.2578 152.345 90.8608C152.001 90.4637 151.812 89.9566 151.812 89.4321C151.812 88.9075 152.001 88.4004 152.345 88.0034C152.689 87.6064 153.165 87.3459 153.685 87.2696H168.801C169.309 87.2696 169.813 87.1698 170.283 86.9758C170.752 86.7818 171.179 86.4975 171.539 86.1391C171.898 85.7807 172.184 85.3552 172.378 84.8869C172.573 84.4186 172.673 83.9166 172.673 83.4097V56.4372H157.791C157.505 56.4434 157.221 56.3926 156.955 56.2879C156.689 56.1832 156.447 56.0266 156.243 55.8273C156.039 55.6281 155.876 55.3902 155.766 55.1275C155.655 54.8649 155.598 54.5829 155.598 54.298C155.598 53.7183 155.829 53.1624 156.24 52.7525C156.651 52.3426 157.209 52.1123 157.791 52.1123H174.866C175.439 52.1245 175.985 52.3601 176.386 52.7687C176.787 53.1773 177.012 53.7263 177.012 54.298V83.4097C177.012 85.5805 176.147 87.6623 174.607 89.1973C173.067 90.7322 170.979 91.5945 168.801 91.5945Z" fill="black"/>
<path d="M175.427 56.4365H158.445C157.876 56.4365 157.33 56.2111 156.927 55.8099C156.525 55.4087 156.299 54.8646 156.299 54.2973C156.299 53.7256 156.523 53.1766 156.924 52.768C157.326 52.3594 157.871 52.1237 158.445 52.1116H175.427V47.4611H158.212C157.691 47.3848 157.215 47.1244 156.871 46.7274C156.527 46.3304 156.338 45.8233 156.338 45.2987C156.338 44.7741 156.527 44.267 156.871 43.87C157.215 43.473 157.691 43.2125 158.212 43.1362H175.427C176.664 43.1362 177.851 43.6262 178.725 44.4983C179.6 45.3704 180.092 46.5533 180.092 47.7867V52.4371C179.933 53.5545 179.373 54.5763 178.514 55.3122C177.656 56.048 176.559 56.4476 175.427 56.4365Z" fill="black"/>
<path d="M158.96 113.358C158.394 113.346 157.855 113.116 157.455 112.718C157.055 112.319 156.825 111.782 156.813 111.218V89.4078C156.89 88.8888 157.151 88.4145 157.55 88.0716C157.948 87.7287 158.457 87.54 158.983 87.54C159.509 87.54 160.018 87.7287 160.416 88.0716C160.814 88.4145 161.076 88.8888 161.152 89.4078V111.032C161.171 111.331 161.129 111.63 161.027 111.912C160.926 112.193 160.767 112.451 160.562 112.669C160.356 112.887 160.108 113.06 159.832 113.179C159.557 113.297 159.26 113.358 158.96 113.358Z" fill="black"/>
<path d="M141.185 91.594H131.248C130.963 91.5941 130.68 91.5372 130.416 91.4268C130.153 91.3164 129.914 91.1547 129.714 90.9511C129.514 90.7475 129.357 90.5062 129.252 90.2412C129.147 89.9763 129.096 89.6931 129.102 89.4083V65.412L120.145 55.7391C119.874 55.4333 119.694 55.0581 119.626 54.6558C119.558 54.2535 119.604 53.8402 119.76 53.4627C119.915 53.0853 120.173 52.7587 120.505 52.52C120.837 52.2812 121.229 52.1398 121.638 52.1118H147.11C147.424 52.0646 147.745 52.086 148.05 52.1745C148.355 52.2631 148.637 52.4166 148.877 52.6244C149.116 52.8323 149.308 53.0896 149.438 53.3784C149.568 53.6673 149.633 53.9809 149.63 54.2975V83.4092C149.63 84.5039 149.41 85.5876 148.983 86.5961C148.556 87.6046 147.93 88.5174 147.143 89.2805C146.355 90.0437 145.423 90.6416 144.399 91.039C143.376 91.4364 142.283 91.6251 141.185 91.594ZM133.394 87.2691H141.185C142.212 87.2691 143.197 86.8624 143.923 86.1386C144.65 85.4147 145.058 84.4329 145.058 83.4092V56.4367H126.676L132.835 63.0868C133.202 63.4953 133.402 64.0265 133.394 64.575V87.2691Z" fill="black"/>
<path d="M147.809 56.4371H121.637C121.338 56.4401 121.042 56.3794 120.768 56.2591C120.494 56.1388 120.25 55.9617 120.051 55.7395L111.886 46.8107C111.66 46.5808 111.491 46.3009 111.394 45.9939C111.297 45.6868 111.274 45.3612 111.326 45.0435C111.376 44.7472 111.49 44.465 111.659 44.2163C111.828 43.9675 112.049 43.758 112.306 43.6019C113.002 43.1545 113.811 42.9126 114.639 42.9043H147.763C149 42.9043 150.186 43.3943 151.061 44.2664C151.936 45.1385 152.428 46.3214 152.428 47.5547V52.2052C152.323 53.3566 151.793 54.4281 150.939 55.2105C150.085 55.9929 148.969 56.4302 147.809 56.4371ZM122.71 52.1122H147.809H148.042V47.4617H147.809H118.044L122.71 52.1122Z" fill="black"/>
<path d="M102.509 113.358H58.608C58.3001 113.372 57.9928 113.321 57.7061 113.208C57.4194 113.096 57.1597 112.924 56.944 112.705C56.7283 112.485 56.5614 112.223 56.4543 111.935C56.3471 111.647 56.302 111.34 56.322 111.033V67.2726C56.322 66.6929 56.553 66.137 56.9642 65.7271C57.3754 65.3172 57.9332 65.0869 58.5147 65.0869H102.509C103.082 65.0991 103.628 65.3347 104.029 65.7433C104.43 66.1519 104.655 66.7009 104.655 67.2726V111.033C104.674 111.328 104.632 111.623 104.534 111.902C104.435 112.18 104.281 112.436 104.08 112.653C103.88 112.87 103.637 113.045 103.367 113.166C103.097 113.287 102.805 113.353 102.509 113.358ZM60.9873 108.708H100.549V69.4118H60.9873V108.708Z" fill="black"/>
<path d="M58.6075 113.358C58.3235 113.364 58.0412 113.313 57.7769 113.21C57.5126 113.106 57.2716 112.951 57.0679 112.754C56.6633 112.345 56.4365 111.793 56.4365 111.219C56.4365 110.645 56.6633 110.093 57.0679 109.684L100.969 65.9236C101.371 65.5232 101.916 65.2983 102.485 65.2983C103.053 65.2983 103.599 65.5232 104.001 65.9236C104.213 66.1195 104.382 66.357 104.498 66.621C104.613 66.8851 104.673 67.1702 104.673 67.4583C104.673 67.7464 104.613 68.0315 104.498 68.2955C104.382 68.5596 104.213 68.797 104.001 68.9929L60.147 112.754C59.9433 112.951 59.7023 113.106 59.438 113.21C59.1738 113.313 58.8914 113.364 58.6075 113.358Z" fill="black"/>
<path d="M177.621 113.358H21.1462C20.6255 113.282 20.1497 113.021 19.8057 112.624C19.4617 112.227 19.2725 111.72 19.2725 111.195C19.2725 110.671 19.4617 110.164 19.8057 109.767C20.1497 109.37 20.6255 109.109 21.1462 109.033H177.621C177.932 108.987 178.25 109.009 178.553 109.097C178.855 109.185 179.135 109.336 179.373 109.541C179.611 109.747 179.803 110 179.934 110.286C180.065 110.571 180.133 110.882 180.133 111.195C180.133 111.509 180.065 111.82 179.934 112.105C179.803 112.39 179.611 112.644 179.373 112.85C179.135 113.055 178.855 113.206 178.553 113.294C178.25 113.382 177.932 113.404 177.621 113.358Z" fill="black"/>
<path d="M27.7223 173.815C27.2017 173.738 26.7259 173.478 26.3819 173.081C26.0379 172.684 25.8486 172.177 25.8486 171.652C25.8486 171.128 26.0379 170.62 26.3819 170.223C26.7259 169.826 27.2017 169.566 27.7223 169.49C35.4451 169.69 42.9328 166.832 48.5463 161.541C54.1599 156.251 57.4418 148.959 57.6737 141.261C57.3459 133.626 54.0236 126.424 48.422 121.205C42.8203 115.987 35.3872 113.169 27.7223 113.359C27.2017 113.283 26.7259 113.022 26.3819 112.625C26.0379 112.228 25.8486 111.721 25.8486 111.196C25.8486 110.672 26.0379 110.165 26.3819 109.768C26.7259 109.371 27.2017 109.11 27.7223 109.034C36.5956 108.834 45.1867 112.148 51.6138 118.249C58.0409 124.351 61.7801 132.743 62.0124 141.587C61.6957 150.374 57.9196 158.683 51.5018 164.715C45.0839 170.747 36.5408 174.016 27.7223 173.815Z" fill="black"/>
<path d="M65.1393 173.815C64.6187 173.738 64.1429 173.478 63.7989 173.081C63.4549 172.684 63.2656 172.177 63.2656 171.652C63.2656 171.127 63.4549 170.62 63.7989 170.223C64.1429 169.826 64.6187 169.566 65.1393 169.49C72.8666 169.69 80.3593 166.834 85.9803 161.544C91.6012 156.255 94.8934 148.963 95.1373 141.261C94.8095 133.617 91.4807 126.408 85.869 121.188C80.2572 115.969 72.8121 113.157 65.1393 113.359C64.6187 113.283 64.1429 113.022 63.7989 112.625C63.4549 112.228 63.2656 111.721 63.2656 111.196C63.2656 110.672 63.4549 110.165 63.7989 109.768C64.1429 109.371 64.6187 109.11 65.1393 109.034C74.0126 108.834 82.6037 112.148 89.0308 118.249C95.4579 124.351 99.1971 132.743 99.4294 141.587C99.1247 150.378 95.3523 158.694 88.9318 164.729C82.5112 170.763 73.9612 174.028 65.1393 173.815Z" fill="black"/>
<path d="M177.619 124.891H129.146C128.626 124.815 128.15 124.554 127.806 124.157C127.462 123.76 127.272 123.253 127.272 122.729C127.272 122.204 127.462 121.697 127.806 121.3C128.15 120.903 128.626 120.643 129.146 120.566H177.619C177.93 120.521 178.248 120.542 178.55 120.63C178.853 120.718 179.133 120.869 179.371 121.075C179.609 121.28 179.801 121.534 179.932 121.819C180.063 122.105 180.13 122.415 180.13 122.729C180.13 123.043 180.063 123.353 179.932 123.638C179.801 123.924 179.609 124.178 179.371 124.383C179.133 124.588 178.853 124.74 178.55 124.827C178.248 124.915 177.93 124.937 177.619 124.891Z" fill="black"/>
<path d="M177.619 137.168H133.999C133.478 137.092 133.002 136.832 132.658 136.435C132.314 136.038 132.125 135.531 132.125 135.006C132.125 134.481 132.314 133.974 132.658 133.577C133.002 133.18 133.478 132.92 133.999 132.844H177.619C177.931 132.798 178.249 132.82 178.551 132.907C178.853 132.995 179.133 133.147 179.372 133.352C179.61 133.557 179.801 133.811 179.932 134.096C180.063 134.382 180.131 134.692 180.131 135.006C180.131 135.32 180.063 135.63 179.932 135.916C179.801 136.201 179.61 136.455 179.372 136.66C179.133 136.865 178.853 137.017 178.551 137.105C178.249 137.192 177.931 137.214 177.619 137.168Z" fill="black"/>
<path d="M177.621 149.399H134.7C134.179 149.323 133.703 149.062 133.359 148.665C133.015 148.268 132.826 147.761 132.826 147.236C132.826 146.712 133.015 146.205 133.359 145.808C133.703 145.411 134.179 145.15 134.7 145.074H177.621C177.932 145.028 178.25 145.05 178.552 145.138C178.855 145.226 179.135 145.377 179.373 145.582C179.611 145.788 179.803 146.041 179.934 146.327C180.065 146.612 180.132 146.923 180.132 147.236C180.132 147.55 180.065 147.861 179.934 148.146C179.803 148.431 179.611 148.685 179.373 148.891C179.135 149.096 178.855 149.247 178.552 149.335C178.25 149.423 177.932 149.445 177.621 149.399Z" fill="black"/>
<path d="M177.619 161.77H129.146C128.626 161.693 128.15 161.433 127.806 161.036C127.462 160.639 127.272 160.132 127.272 159.607C127.272 159.083 127.462 158.575 127.806 158.178C128.15 157.781 128.626 157.521 129.146 157.445H177.619C177.93 157.399 178.248 157.421 178.55 157.508C178.853 157.596 179.133 157.748 179.371 157.953C179.609 158.158 179.801 158.412 179.932 158.698C180.063 158.983 180.13 159.293 180.13 159.607C180.13 159.921 180.063 160.231 179.932 160.517C179.801 160.802 179.609 161.056 179.371 161.261C179.133 161.466 178.853 161.618 178.55 161.706C178.248 161.793 177.93 161.815 177.619 161.77Z" fill="black"/>
<path d="M177.622 173.814H102.603C102.292 173.859 101.974 173.838 101.672 173.75C101.369 173.662 101.09 173.51 100.851 173.305C100.613 173.1 100.422 172.846 100.291 172.561C100.16 172.275 100.092 171.965 100.092 171.651C100.092 171.337 100.16 171.027 100.291 170.742C100.422 170.456 100.613 170.202 100.851 169.997C101.09 169.792 101.369 169.64 101.672 169.553C101.974 169.465 102.292 169.443 102.603 169.489C110.326 169.689 117.814 166.831 123.427 161.54C129.041 156.25 132.323 148.958 132.555 141.261C132.227 133.625 128.905 126.423 123.303 121.204C117.701 115.986 110.268 113.168 102.603 113.358C102.292 113.404 101.974 113.382 101.672 113.294C101.369 113.206 101.09 113.055 100.851 112.85C100.613 112.644 100.422 112.39 100.291 112.105C100.16 111.82 100.092 111.509 100.092 111.195C100.092 110.882 100.16 110.571 100.291 110.286C100.422 110 100.613 109.747 100.851 109.541C101.09 109.336 101.369 109.185 101.672 109.097C101.974 109.009 102.292 108.987 102.603 109.033C111.477 108.833 120.068 112.147 126.495 118.248C132.922 124.35 136.661 132.742 136.894 141.586C136.807 147.399 135.161 153.083 132.125 158.047C129.089 163.011 124.776 167.074 119.632 169.814H177.622C177.956 169.667 178.321 169.606 178.684 169.635C179.048 169.665 179.399 169.784 179.704 169.983C180.01 170.181 180.261 170.453 180.435 170.773C180.609 171.092 180.7 171.45 180.7 171.814C180.7 172.178 180.609 172.536 180.435 172.855C180.261 173.175 180.01 173.446 179.704 173.645C179.399 173.844 179.048 173.963 178.684 173.992C178.321 174.022 177.956 173.96 177.622 173.814Z" fill="black"/>
</g>
<defs>
<clipPath id="clip0">
<rect width="161" height="149" fill="white" transform="translate(19 25)"/>
</clipPath>
</defs>
</svg>
