<svg width="200" height="200" viewBox="0 0 200 200" fill="none" xmlns="http://www.w3.org/2000/svg">
<g clip-path="url(#clip0)">
<path d="M154.575 181H44.4288C44.0945 181.049 43.7535 181.025 43.429 180.931C43.1045 180.837 42.8042 180.675 42.5484 180.455C42.2926 180.235 42.0875 179.963 41.9468 179.657C41.8062 179.351 41.7334 179.019 41.7334 178.683C41.7334 178.346 41.8062 178.014 41.9468 177.708C42.0875 177.402 42.2926 177.13 42.5484 176.91C42.8042 176.69 43.1045 176.528 43.429 176.434C43.7535 176.34 44.0945 176.317 44.4288 176.366C48.4514 176.14 52.2345 174.39 55.002 171.476C57.7695 168.562 59.3115 164.704 59.3115 160.694C59.3115 156.684 57.7695 152.826 55.002 149.912C52.2345 146.997 48.4514 145.248 44.4288 145.022C43.8048 145.022 43.2062 144.775 42.7649 144.336C42.3236 143.897 42.0757 143.301 42.0757 142.68C42.0756 142.375 42.1368 142.072 42.2557 141.791C42.3746 141.51 42.5487 141.255 42.7679 141.041C42.9871 140.828 43.2469 140.66 43.5321 140.548C43.8173 140.435 44.1222 140.381 44.4288 140.388H154.575C157.339 140.251 160.102 140.676 162.697 141.634C165.291 142.593 167.663 144.067 169.668 145.966C171.673 147.865 173.269 150.15 174.36 152.682C175.45 155.213 176.013 157.939 176.013 160.694C176.013 163.448 175.45 166.174 174.36 168.706C173.269 171.238 171.673 173.522 169.668 175.421C167.663 177.32 165.291 178.794 162.697 179.753C160.102 180.712 157.339 181.136 154.575 181ZM57.3459 176.366H154.575C156.717 176.486 158.862 176.17 160.877 175.436C162.893 174.703 164.737 173.568 166.296 172.101C167.856 170.634 169.098 168.866 169.947 166.904C170.796 164.943 171.234 162.83 171.234 160.694C171.234 158.558 170.796 156.445 169.947 154.483C169.098 152.522 167.856 150.753 166.296 149.286C164.737 147.819 162.893 146.684 160.877 145.951C158.862 145.218 156.717 144.902 154.575 145.022H57.3459C59.681 146.919 61.5628 149.31 62.8551 152.02C64.1474 154.731 64.8178 157.694 64.8178 160.694C64.8178 163.694 64.1474 166.657 62.8551 169.367C61.5628 172.078 59.681 174.468 57.3459 176.366Z" fill="black"/>
<path d="M44.4294 181H42.4267C37.2863 180.362 32.5634 177.858 29.1634 173.969C25.7633 170.079 23.9255 165.077 24.0023 159.922V21.2922C24.0151 20.6883 24.2618 20.1126 24.691 19.6855C25.1202 19.2583 25.6986 19.0127 26.3054 19H145.914C146.529 18.9999 147.12 19.2398 147.56 19.6683C148 20.0968 148.254 20.6797 148.267 21.2922V30.2618C148.267 30.5693 148.206 30.8739 148.088 31.158C147.97 31.4422 147.796 31.7004 147.578 31.9178C147.359 32.1353 147.1 32.3078 146.814 32.4255C146.529 32.5432 146.223 32.6038 145.914 32.6038C145.607 32.6039 145.303 32.543 145.021 32.4247C144.738 32.3064 144.482 32.1331 144.267 31.9149C144.053 31.6968 143.884 31.4382 143.771 31.1543C143.659 30.8704 143.604 30.567 143.611 30.2618V23.6343H28.6585V159.922C28.577 163.906 29.979 167.78 32.5948 170.797C35.2105 173.815 38.8552 175.763 42.8272 176.266C45.0181 176.489 47.2316 176.252 49.3244 175.57C51.4172 174.887 53.3426 173.775 54.9758 172.304C56.609 170.834 57.9136 169.038 58.805 167.034C59.6963 165.029 60.1546 162.861 60.1502 160.669C60.137 156.523 58.4765 152.551 55.5311 149.62C52.5857 146.688 48.5947 145.035 44.4294 145.022C43.8053 145.022 43.2068 144.775 42.7655 144.336C42.3242 143.897 42.0763 143.301 42.0763 142.68C42.0762 142.375 42.1374 142.073 42.2562 141.791C42.3751 141.51 42.5492 141.255 42.7684 141.041C42.9876 140.828 43.2474 140.66 43.5326 140.548C43.8179 140.436 44.1227 140.381 44.4294 140.388H143.611V69.4786C143.604 69.1734 143.659 68.87 143.771 68.5861C143.884 68.3022 144.053 68.0436 144.267 67.8255C144.482 67.6073 144.738 67.434 145.021 67.3157C145.303 67.1974 145.607 67.1365 145.914 67.1366C146.223 67.1366 146.529 67.1972 146.814 67.3149C147.1 67.4326 147.359 67.6051 147.578 67.8225C147.796 68.04 147.97 68.2982 148.088 68.5824C148.206 68.8665 148.267 69.1711 148.267 69.4786V142.68C148.267 143.301 148.019 143.897 147.578 144.336C147.136 144.775 146.538 145.022 145.914 145.022H57.3465C59.6924 146.904 61.5815 149.288 62.8731 151.997C64.1647 154.706 64.8255 157.67 64.8064 160.669C64.7876 163.482 64.1867 166.262 63.041 168.834C61.8954 171.406 60.2296 173.715 58.1475 175.618C54.4289 179.083 49.5234 181.008 44.4294 181Z" fill="black"/>
<path d="M95.1477 83.2826C91.6499 83.3256 88.2004 82.4673 85.1345 80.791C78.9763 77.4025 72.668 79.1466 65.9591 80.791C59.2502 82.4354 50.9392 84.8771 43.229 80.791C42.7477 80.4624 42.4063 79.9675 42.2711 79.4023C42.1358 78.8372 42.2165 78.2423 42.4973 77.733C42.7781 77.2237 43.239 76.8365 43.7906 76.6465C44.3421 76.4565 44.9449 76.4773 45.4819 76.7049C51.6401 80.0934 57.9985 78.3493 64.7074 76.7049C71.4163 75.0605 79.7273 72.6188 87.3875 76.7049C93.5456 80.0934 99.904 78.3493 106.613 76.7049C113.322 75.0605 121.633 72.6188 129.343 76.7049C129.874 77.0085 130.266 77.5063 130.434 78.0925C130.602 78.6787 130.534 79.3071 130.244 79.8442C129.948 80.3815 129.451 80.7816 128.861 80.9587C128.272 81.1357 127.636 81.0755 127.09 80.791C120.932 77.4025 114.573 79.1466 107.865 80.791C103.758 82.1874 99.48 83.0255 95.1477 83.2826Z" fill="black"/>
<path d="M95.1452 97.4343C91.6474 97.4774 88.1979 96.6191 85.132 94.9428C78.9738 91.5543 72.6655 93.2984 65.9566 94.9428C59.2477 96.5872 50.9367 99.0289 43.2265 94.9428C42.9586 94.7972 42.7225 94.6 42.5318 94.3628C42.3412 94.1255 42.1998 93.8529 42.116 93.5608C42.0321 93.2687 42.0074 92.9629 42.0434 92.6612C42.0793 92.3595 42.1751 92.068 42.3253 91.8035C42.4664 91.5318 42.6618 91.2917 42.8995 91.098C43.1373 90.9043 43.4123 90.761 43.7078 90.677C44.0032 90.593 44.3128 90.57 44.6174 90.6095C44.9221 90.649 45.2155 90.75 45.4795 90.9065C51.6376 94.295 57.996 92.5011 64.7049 90.9065C71.4138 89.3119 79.7248 86.7705 87.385 90.9065C93.5431 94.2452 99.9015 92.5509 106.61 90.9065C113.319 89.2621 121.63 86.7705 129.341 90.9065C129.872 91.2101 130.263 91.7079 130.431 92.2941C130.6 92.8803 130.532 93.5088 130.242 94.0458C129.937 94.5746 129.437 94.964 128.848 95.1315C128.259 95.299 127.627 95.2313 127.088 94.9428C120.929 91.5543 114.571 93.2984 107.862 94.9428C103.755 96.3392 99.4775 97.1773 95.1452 97.4343Z" fill="black"/>
<path d="M95.148 111.636C91.6463 111.659 88.1976 110.784 85.1347 109.095C78.9766 105.706 72.6682 107.45 65.9593 109.095C59.2505 110.739 50.9394 113.181 43.2292 109.095C42.6915 108.797 42.2944 108.3 42.1254 107.711C41.9564 107.122 42.0293 106.491 42.328 105.955C42.6268 105.42 43.127 105.025 43.7185 104.857C44.31 104.688 44.9444 104.761 45.4822 105.058C51.6404 108.447 57.9988 106.703 64.7077 105.058C71.4166 103.414 79.7276 100.972 87.3877 105.058C93.5459 108.447 99.9043 106.703 106.613 105.058C113.322 103.414 121.633 100.972 129.343 105.058C129.875 105.362 130.266 105.86 130.434 106.446C130.602 107.032 130.534 107.661 130.244 108.198C130.098 108.464 129.9 108.699 129.662 108.889C129.423 109.079 129.149 109.22 128.856 109.303C128.562 109.386 128.255 109.411 127.952 109.375C127.649 109.34 127.356 109.244 127.09 109.095C120.932 105.706 114.574 107.45 107.865 109.095C103.76 110.507 99.4825 111.362 95.148 111.636Z" fill="black"/>
<path d="M95.1477 125.787C91.6499 125.83 88.2004 124.972 85.1345 123.296C78.9763 119.907 72.668 121.651 65.9591 123.296C59.2502 124.94 50.9392 127.382 43.229 123.296C42.7477 122.967 42.4063 122.472 42.2711 121.907C42.1358 121.342 42.2165 120.747 42.4973 120.238C42.7781 119.729 43.239 119.341 43.7906 119.151C44.3421 118.961 44.9449 118.982 45.4819 119.21C51.6401 122.598 57.9985 120.854 64.7074 119.21C71.4163 117.565 79.7273 115.124 87.3875 119.21C93.5456 122.598 99.904 120.854 106.613 119.21C113.322 117.565 121.633 115.124 129.343 119.21C129.874 119.513 130.266 120.011 130.434 120.597C130.602 121.184 130.534 121.812 130.244 122.349C129.948 122.886 129.451 123.287 128.861 123.464C128.272 123.641 127.636 123.58 127.09 123.296C120.932 119.907 114.573 121.651 107.865 123.296C103.758 124.692 99.48 125.53 95.1477 125.787Z" fill="black"/>
<path d="M127.482 50H42.5183C42.0563 50 41.5988 49.9398 41.1719 49.8229C40.7451 49.706 40.3572 49.5346 40.0305 49.3185C39.7038 49.1025 39.4446 48.846 39.2678 48.5637C39.091 48.2814 39 47.9789 39 47.6733V32.2777C39 31.6738 39.3628 31.0946 40.0086 30.6675C40.6543 30.2405 41.5302 30.0005 42.4434 30.0005H127.482C127.94 29.9939 128.396 30.048 128.822 30.1595C129.249 30.2709 129.637 30.4376 129.965 30.6497C130.293 30.8619 130.553 31.1151 130.731 31.3947C130.909 31.6742 131 31.9745 131 32.2777V47.6733C131 48.2904 130.629 48.8822 129.969 49.3185C129.31 49.7549 128.415 50 127.482 50ZM46.0366 45.3962H124.038V34.6044H46.0366V45.3962Z" fill="black"/>
<path d="M126.145 61.9787H44.8758C44.0766 61.9089 43.3464 61.6706 42.8185 61.3073C42.2905 60.944 42 60.48 42 60C42 59.52 42.2905 59.056 42.8185 58.6927C43.3464 58.3294 44.0766 58.0911 44.8758 58.0213H126.145C126.623 57.9795 127.111 57.9994 127.575 58.0797C128.039 58.1599 128.469 58.2987 128.834 58.4864C129.2 58.6742 129.494 58.9065 129.695 59.1677C129.896 59.4289 130 59.7128 130 60C130 60.2872 129.896 60.5711 129.695 60.8323C129.494 61.0935 129.2 61.3258 128.834 61.5136C128.469 61.7013 128.039 61.8401 127.575 61.9203C127.111 62.0006 126.623 62.0205 126.145 61.9787Z" fill="black"/>
</g>
<defs>
<clipPath id="clip0">
<rect width="151" height="162" fill="white" transform="translate(24 19)"/>
</clipPath>
</defs>
</svg>
