<svg width="512" height="512" viewBox="0 0 512 512" fill="none" xmlns="http://www.w3.org/2000/svg">
<g clip-path="url(#clip0)">
<path d="M437.76 73.5787C389.12 26.56 325.12 0 256.96 0C61.3333 0 -61.504 211.947 36.1813 380.544L0 512L135.147 476.757C194.027 508.565 242.261 505.749 257.088 507.627C483.925 507.627 596.843 233.195 437.44 74.4107L437.76 73.5787Z" fill="#FFDC4D"/>
<path d="M257.43 464.021L257.302 464H256.96C189.078 464 145.707 431.851 141.44 429.995L61.4404 450.795L82.8804 373.035L77.7818 365.035C56.6618 331.413 45.4404 292.693 45.4404 252.821C45.4404 65.2374 274.667 -28.5652 407.318 104.021C539.648 235.221 446.742 464.021 257.43 464.021Z" fill="white"/>
<path d="M373.483 305.216L373.291 306.816C366.869 303.616 335.595 288.32 329.771 286.208C316.693 281.365 320.384 285.44 295.275 314.197C291.541 318.357 287.829 318.677 281.493 315.797C275.093 312.597 254.549 305.877 230.229 284.117C211.285 267.157 198.571 246.357 194.816 239.957C188.565 229.163 201.643 227.627 213.547 205.099C215.68 200.619 214.592 197.099 213.013 193.92C211.413 190.72 198.677 159.36 193.344 146.859C188.224 134.4 182.955 135.979 179.008 135.979C166.72 134.912 157.739 135.083 149.824 143.317C115.392 181.163 124.075 220.203 153.536 261.717C211.435 337.493 242.283 351.445 298.688 370.816C313.92 375.659 327.808 374.976 338.795 373.397C351.04 371.456 376.491 358.016 381.803 342.976C387.243 327.936 387.243 315.456 385.643 312.576C384.064 309.696 379.883 308.096 373.483 305.216V305.216Z" fill="#FFDC4D"/>
</g>
<defs>
<clipPath id="clip0">
<rect width="512" height="512" fill="white"/>
</clipPath>
</defs>
</svg>
