<svg width="1116" height="289" viewBox="0 0 1116 289" fill="none" xmlns="http://www.w3.org/2000/svg">
<g clip-path="url(#clip0)">
<path d="M176.5 98H125.5V233H76.75V98H25.5V55.5H176.5V98ZM334.506 190.5V233H208.006V55.5H332.256V98H256.756V123H321.256V162.5H256.756V190.5H334.506ZM370.926 233V55.5H452.426C461.092 55.5 469.092 57.25 476.426 60.75C483.759 64.25 490.092 69 495.426 75C500.759 80.8333 504.842 87.4167 507.676 94.75C510.676 102.083 512.176 109.5 512.176 117C512.176 127.167 509.926 136.75 505.426 145.75C500.926 154.75 494.676 162.083 486.676 167.75L524.176 233H470.676L439.426 178.5H419.676V233H370.926ZM419.676 136H450.426C453.426 136 456.176 134.333 458.676 131C461.342 127.667 462.676 123 462.676 117C462.676 110.833 461.176 106.167 458.176 103C455.176 99.6667 452.176 98 449.176 98H419.676V136ZM602.127 145.75V233H553.377V55.5H591.377L662.627 145.75V55.5H711.377V233H672.627L602.127 145.75ZM796.604 55.5H851.104L907.604 233H858.104L847.354 198.25H800.104L789.604 233H739.854L796.604 55.5ZM839.604 165.75L823.854 103.25L807.354 165.75H839.604ZM936.102 233V55.5H984.852V123L1038.85 55.5H1093.85L1029.35 135L1098.35 233H1042.35L998.352 167.75L984.852 181.75V233H936.102Z" fill="#FEF7DB"/>
</g>
<defs>
<clipPath id="clip0">
<rect width="1116" height="289" fill="white"/>
</clipPath>
</defs>
</svg>
